# xmcd CD database file
#
# Track frame offsets:
#	150
#	21057
#	51344
#	71228
#	85607
#	114408
#	136122
#	151434
#	170455
#	195026
#	210606
#
# Disc length: 3048 seconds
#
# Revision: 0
# Processed by: cddbd v1.5.2PL0 Copyright (c) Steve Scherf et al.
# Submitted via: CDex 1.51
#
DISCID=890be60b
DTITLE=VERA TAYLOR - Chicago Blues Session Volume 54-You Better Be Careful
DYEAR=2000
DGENRE=Blues
TTITLE0=Ain't Gonna Cry
TTITLE1=You Better Be Careful
TTITLE2=Trouble, Trouble
TTITLE3=You Don't Treat Me Right
TTITLE4=No Answer On The Telephone
TTITLE5=14 Years Before My Time
TTITLE6=What Is Wrong With You
TTITLE7=Sittin' Here  Wonderin'
TTITLE8=I Found Out
TTITLE9=I Have The Blues
TTITLE10=Why Do Everything I Do Go Wrong
EXTD=YEAR: 2000
EXTT0=
EXTT1=
EXTT2=
EXTT3=
EXTT4=
EXTT5=
EXTT6=
EXTT7=
EXTT8=
EXTT9=
EXTT10=
PLAYORDER=
